<svg version="1.2" xmlns="http://www.w3.org/2000/svg" viewBox="0 0 512 512" width="512" height="512"><style>.a{fill:#000000;paint-order:stroke fill markers;stroke:#049372;stroke-width: 16;stroke-linejoin: round;}</style><path class="a" d="m69.6 212h16.2v15.2h-16.5v12.2h3.3q9.1 0 12 3.8 3 3.6 3 14.8v4.3q0 12.2-3 16-1.4 1.8-3.4 2.8-2 0.8-4.9 0.8l-8.1 0.1h-17.4v-15.2h17.5v-12.2h-2.9q-9.3 0-12.1-3.6-2.8-3.7-2.8-15.6v-4.3q0-13 4.3-16.7 1.3-1.2 3.1-1.7 1.8-0.6 4.6-0.6zm39.2 87.2h-16.7v-71h16.7v5.9q2-3.9 3.7-5 1.7-1.2 5.6-1.2h3.3q7.6 0 9.6 3 0.5 0.8 0.9 2.2 0.4 1.2 0.7 4.2l0.4 4.6v28.8q0 6.5-2 9-2 2.5-7.4 2.5h-3.6q-4.2 0-5.9-0.7-1.8-0.8-4-3.6l-1.3-1.6zm0-52.4v16.6q0 6.1 3.7 6.1 3.8 0 3.8-6.1v-16.6q0-6.1-3.8-6.1-3.7 0-3.7 6.1zm70.5-7v22.1h-24.2v2.8q0 2.7 1.2 3.7 1.1 0.9 4.7 0.9h18.3v12.7h-28.1q-8.1 0-10.5-2-2.3-2.1-2.3-9.3v-3.2-28.4q0-6.4 2.7-8.6 2.8-2.2 11.1-2.2h13.1q8.4 0 11.4 2.4 1.7 1.2 2.1 2.8 0.5 1.6 0.5 6.3zm-24.2 7v4.9h7.5v-4.9q0-5.8-3.7-5.8-3.8 0-3.8 5.8zm29.6 35.2v-53.7h16.7v5.7q2.1-3.5 4.5-4.7 2.6-1.3 7.8-1.3 8.8 0 11.1 4.5 0.9 1.6 1 4.9 0.1 3.2 0.1 9v35.6h-16.7v-35.5q0-6-3.9-6-3.9 0-3.9 6.2v35.3zm71.1-70h16.7v70h-16.7v-5.9q-2.1 4-3.7 5.1-1.5 1-5.5 1h-3.4q-4.6 0-6.5-0.5-1.8-0.5-3-2.3-0.6-0.7-1-2-0.4-1.4-0.7-4.4l-0.3-4.7v-28.8q0-6.5 2-9 1.9-2.6 7.3-2.6h3.6q4.2 0 6 0.8 1.7 0.7 3.9 3.5l1.3 1.6zm0 51.2v-16.6q0-6.1-3.7-6.1-3.7 0-3.7 6.1v16.6q0 6 3.7 6 3.7 0 3.7-6zm22.8 18.9v-70.1h16.7v70.1zm38.1-53.8v20.4 1.7q0 9.5 0.5 12.1 0.7 2.5 3.3 7.2 1.8-3.1 2.5-5.1 0.8-2.1 0.8-4.4l0.4-6.4v-1.7l0.1-1.7v-1.7-20.4h16.7v19.5q0 12.8-2.9 20.8-2.8 7.9-9.4 13.5v17.2h-16.3v-17.2q-6.5-5.5-9.5-13.5-2.9-8.1-2.9-20.8v-19.5zm29.8 41.2v-26.5h-4.5v-12.7h4.5v-12.7h16.7v12.7h8v12.7h-8v22.7q0 3.6 3.6 3.6h4.4v12.8h-13.2q-6.5 0-9.1-2.7-2.4-2.7-2.4-9.9zm28.7 12.6v-53.8h16.7v53.8zm0-58.6v-11.5h16.7v11.5zm39.1 24.3v15.1q0 4.5 0.8 5.5 0.8 0.9 4.3 0.9h5.2v12.8h-15.2q-4.1 0-6-0.5-1.9-0.4-3.3-1.8-1.4-1.4-1.9-3-0.5-1.6-0.5-5.2v-5.5-25.7q0-8 1.9-10 2.1-2.1 9.9-2.1h15.1v12.7h-5.5q-3.1 0-3.9 1.3-0.9 1.1-0.9 5.5zm24.8-19.5h20.6v12.7h-15.1v6.3h5.9q4.1 0 6.3 0.7 2.2 0.8 3.3 2.6 0.9 1.3 1.2 3.6 0.3 2.2 0.3 8v7.4q0 7.2-2.8 9.9-1.7 1.8-3.2 2.2-1.4 0.4-6.7 0.4h-21v-12.8h16.5v-6.8h-8.2q-4 0-5.8-0.9-1.7-1-2.1-3-0.3-2-0.4-3.8 0-2 0-4.1v-12.7q0-5.8 2.2-7.7 2.3-2 9-2z"/></svg>